<svg xmlns="http://www.w3.org/2000/svg" width="24" height="24" viewBox="0 0 24 24">
  <path fill="currentColor" d="M12.545 12.151c0 .866-.563 1.599-1.366 1.599c-.805 0-1.368-.733-1.368-1.599c0-.866.563-1.599 1.368-1.599c.803 0 1.366.733 1.366 1.599m3.44 0c0 .866-.563 1.599-1.366 1.599c-.805 0-1.368-.733-1.368-1.599c0-.866.563-1.599 1.368-1.599c.803 0 1.366.733 1.366 1.599m3.44 0c0 .866-.563 1.599-1.366 1.599c-.805 0-1.368-.733-1.368-1.599c0-.866.563-1.599 1.368-1.599c.803 0 1.366.733 1.366 1.599"/>
</svg>